<?xml version="1.0" encoding="UTF-8"?>
<svg width="73px" height="75px" viewBox="0 0 73 75" version="1.1" xmlns="http://www.w3.org/2000/svg" xmlns:xlink="http://www.w3.org/1999/xlink">
    <!-- Generator: Sketch 44.1 (41455) - http://www.bohemiancoding.com/sketch -->
    <title>Artboard</title>
    <desc>Created with Sketch.</desc>
    <defs></defs>
    <g id="Page-1" stroke="none" stroke-width="1" fill="none" fill-rule="evenodd">
        <g id="Artboard" fill-rule="nonzero">
            <path d="M63.76,16.4 C70.3146589,24.1939631 73.2031243,34.4292568 71.69,44.5 C65.7635204,41.6228056 59.0327403,40.8537751 52.61,42.32 L48.61,24.89 L48,22.25 L56.05,19 L63.4,16 L63.76,16.4 Z" id="Shape" fill="#6B58A8"></path>
            <path d="M29.4320172,4.39 L39.8520172,2 L39.5420172,2.08 L39.2720172,2.15 L39.0420172,2.22 L38.8520172,2.31 L38.4920172,2.44 L38.2820172,2.52 L37.8520172,2.66 L37.6320172,2.76 L37.1620172,2.99 L36.9620172,3.1 L36.8520172,3.18 C36.6320172,3.31 36.4220172,3.44 36.2220172,3.58 L35.9820172,3.75 L35.8120172,3.88 L35.7420172,3.93 L35.5720172,4.07 L35.3720172,4.23 L35.1720172,4.4 L34.7920172,4.75 L34.6120172,4.93 L34.4320172,5.12 L34.2520172,5.31 C33.9961253,5.59693383 33.7557812,5.89736392 33.5320172,6.21 L33.4120172,6.38 L33.3120172,6.53 L33.1920172,6.71 L32.9320172,7.14 L32.7920172,7.4 L32.6520172,7.67 L32.5220172,7.94 L32.5220172,7.94 C32.1269835,8.79577686 31.8478559,9.70041949 31.6920172,10.63 C30.3664837,10.7696684 29.0507061,10.9900779 27.7520172,11.29 C11.0449573,15.151358 0.294804889,31.4282758 3.30201718,48.31 C3.16201718,47.8 3.02201718,47.31 2.90201718,46.75 C-1.45911776,27.7282705 10.4145674,8.76975935 29.4320172,4.39 L29.4320172,4.39 Z" id="Shape" fill="#9DEBD5"></path>
            <path d="M71.44,11 C71.8111065,11.009949 72.1222778,11.2832751 72.18,11.65 C72.2381919,11.8321315 72.2381919,12.0278685 72.18,12.21 C72.1192703,12.3682352 71.9964089,12.4947103 71.84,12.56 L63.56,15.89 L56.21,18.89 L48.15,22.11 L46,12.75 L48.91,12.55 L71.44,11 Z" id="Shape" fill="#9DEBD5"></path>
            <path d="M52.4283431,41.5089855 C58.8510834,40.0427607 65.5818634,40.8117911 71.5083431,43.6889855 C68.9702914,60.1352251 55.3113158,72.5880035 38.7011301,73.5990583 C22.0909444,74.6101131 7.02241672,63.9059653 2.50834306,47.8889855 L2.50834306,47.8889855 C-0.512665291,31.0096325 10.2243242,14.7238794 26.9283431,10.8489855 C28.227032,10.5490634 29.5428096,10.3286539 30.8683431,10.1889855 C31.0241817,9.259405 31.3033094,8.35476237 31.6983431,7.49898552 L31.6983431,7.49898552 L31.8283431,7.22898552 L31.9683431,6.95898552 L32.1083431,6.69898552 L32.3683431,6.26898552 L32.4883431,6.08898552 L32.5883431,5.93898552 L32.7083431,5.76898552 C32.9282801,5.44976456 33.1652917,5.14265093 33.4183431,4.84898552 L33.5883431,4.65898552 L33.7683431,4.46898552 L33.9483431,4.28898552 L34.3283431,3.93898552 L34.5283431,3.76898552 L34.7283431,3.60898552 L34.8983431,3.46898552 L34.9683431,3.41898552 L35.1383431,3.28898552 L35.3783431,3.11898552 C35.5783431,2.97898552 35.7983431,2.84898552 36.0083431,2.71898552 L36.1283431,2.64898552 L36.3283431,2.53898552 L36.7983431,2.30898552 L37.0183431,2.20898552 L37.4383431,2.02898552 L37.6483431,1.94898552 L38.0183431,1.84898552 L38.1983431,1.78898552 L38.4283431,1.71898552 L38.6983431,1.64898552 L39.0183431,1.53898552 L39.0183431,1.53898552 L41.1583431,1.04898552 L41.1583431,1.04898552 C42.1909967,0.812208655 43.2202778,1.45662812 43.4583431,2.48898552 L45.6683431,12.0989855 L47.8183431,21.4589855 L48.4283431,24.0989855 L52.4283431,41.5089855 Z" id="Shape" fill="#FFFFFF"></path>
            <path d="M72.0818468,30.3586295 C70.8548482,25.0622004 68.4636253,20.1055369 65.0818468,15.8486295 L71.8518468,13.1086295 C72.3117183,12.9318972 72.6751145,12.5685009 72.8518468,12.1086295 C73.0129774,11.7121715 73.0478982,11.275662 72.9518468,10.8586295 C72.7645215,9.93817224 71.9296384,9.29497142 70.9918468,9.34862945 L46.5218468,10.9986295 L44.5218468,2.33862945 C44.1264539,0.710229926 42.4948592,-0.297257516 40.8618468,0.0786294501 L38.7218468,0.56862945 L38.7218468,0.56862945 L28.3118468,2.99862945 C8.69456615,7.54163052 -3.55299003,27.0956879 0.921846785,46.7286295 C1.04184678,47.2586295 1.18184678,47.7786295 1.32184678,48.2986295 L1.32184678,48.2986295 L1.32184678,48.2986295 C5.66584611,64.1073155 20.037187,75.0649001 36.4318468,75.0686295 C39.2151814,75.0688804 41.9895696,74.7535327 44.7018468,74.1286295 C54.1420212,71.9640107 62.3334862,66.1332899 67.4698182,57.9222874 C72.6061501,49.7112848 74.2654666,39.7944269 72.0818468,30.3586295 L72.0818468,30.3586295 Z M69.8518468,30.8686295 C70.7093077,34.5706194 70.9425152,38.3898156 70.5418468,42.1686295 C65.0935889,39.8487982 59.0777197,39.2047381 53.2618468,40.3186295 L49.1118468,22.3186295 L56.2618468,19.4286295 L56.2618468,19.4286295 L62.8718468,16.7586295 C66.2769374,20.8468376 68.6685005,25.6813585 69.8518468,30.8686295 Z M69.0418468,11.7786295 L55.4118468,17.2886295 L55.4118468,17.2886295 L48.6018468,19.9986295 L47.0518468,13.2486295 L69.0418468,11.7786295 Z M28.8318468,5.19862945 L32.4318468,4.36862945 C32.1918468,4.64862945 31.9618468,4.93862945 31.7718468,5.20862945 L31.6218468,5.42862945 L31.3818468,5.78862945 L31.1018468,6.26862945 L30.9418468,6.55862945 L30.6518468,7.14862945 C30.3436496,7.83717366 30.1025348,8.55382045 29.9318468,9.28862945 C28.8318468,9.42862945 27.7418468,9.60862945 26.6618468,9.85862945 C16.5916581,12.1527143 8.15931083,18.9961442 3.84184678,28.3786295 C7.45906825,16.7590416 16.9735713,7.93366423 28.8318468,5.19862945 Z M44.1818468,71.8986295 C26.3674386,76.0382578 8.45412608,65.4084285 3.55184678,47.7886295 C0.619602948,31.492874 11.0109573,15.7693458 27.1518468,12.0786295 C27.9418468,11.8986295 28.7518468,11.7586295 29.5618468,11.6386295 C29.5174132,12.6798046 29.6115711,13.7222668 29.8418468,14.7386295 C29.9826794,15.3544269 30.5960493,15.739462 31.2118468,15.5986294 C31.8276443,15.4577968 32.2126794,14.8444269 32.0718468,14.2286295 C31.6014888,12.2217785 31.7944707,10.1165214 32.6218468,8.22862945 L32.7118468,8.02862945 L32.8218468,7.80862945 L32.9918468,7.59862945 L33.1118468,7.38862945 L33.3118468,6.99862945 L33.6118468,6.54862945 C33.8229863,6.25640837 34.0499938,5.97598724 34.2918468,5.70862945 L34.7318468,5.24862945 L35.0718468,4.92862945 L35.5318468,4.54862945 L35.6418468,4.46862945 L35.9918468,4.20862945 C36.1718468,4.08862945 36.3618468,3.96862945 36.5618468,3.84862945 L36.6718468,3.78862945 L36.8518468,3.68862945 L37.2718468,3.47862945 L37.4918468,3.37862945 L37.8518468,3.22862945 L38.0518468,3.15862945 L38.3518468,3.04862945 L41.3518468,2.29862945 C41.5521804,2.25081269 41.7633203,2.28524717 41.9380805,2.39423742 C42.1128407,2.50322766 42.2366527,2.6776879 42.2818468,2.87862945 L53.1618468,50.0486295 C53.3425314,50.8436535 52.846214,51.6350786 52.0518468,51.8186295 L45.3018468,53.3686295 C43.0997417,53.8677682 40.9073454,52.4969624 40.3918468,50.2986295 L38.7818468,43.2986295 L37.8518468,43.2986295 C33.2369098,43.3916719 29.1107328,40.4374268 27.7118468,36.0386295 C26.7044405,33.1229949 26.9581206,29.919378 28.4118468,27.1986295 C29.8103592,24.5280356 32.2733125,22.5736567 35.1918468,21.8186295 C36.6802402,21.4278587 38.2349564,21.3596694 39.7518468,21.6186295 C40.1537706,21.6882962 40.5623303,21.5382472 40.8236254,21.2250044 C41.0849205,20.9117616 41.1592541,20.482914 41.0186254,20.1000044 C40.8779967,19.7170948 40.5437706,19.4382962 40.1418468,19.3686295 C38.3057289,19.0549683 36.4238125,19.1367907 34.6218468,19.6086295 C31.0822689,20.5190146 28.0927373,22.8837594 26.3918468,26.1186295 C24.6350543,29.4017539 24.3269973,33.2687763 25.5418468,36.7886295 C27.1958066,41.7902982 31.7330055,45.277403 36.9918468,45.5886295 L38.1918468,50.8186295 C38.9852225,54.2559981 42.4140463,56.400132 45.8518468,55.6086295 L52.6018468,54.0586295 C53.5766415,53.8347367 54.4225172,53.2326646 54.9532838,52.3849385 C55.4840504,51.5372123 55.6562025,50.5133178 55.4318468,49.5386295 L53.8318468,42.5386295 C59.3743691,41.5111915 65.0986889,42.2092792 70.2318468,44.5386295 C67.8767331,58.0835842 57.5961554,68.8772041 44.1818468,71.8886295 L44.1818468,71.8986295 Z" id="Shape" fill="#392F5A"></path>
            <path d="M45.8126676,25.7980719 C45.7430455,25.460405 45.5043935,25.1824167 45.1811597,25.0624746 C44.8579259,24.9425325 44.4957039,24.9975549 44.2226676,25.2080719 C43.243355,25.994483 42.8010047,27.272308 43.0845143,28.4958758 C43.3680239,29.7194435 44.3272868,30.6725045 45.5526676,30.9480719 C45.8893523,31.0137141 46.2361863,30.9022066 46.4715358,30.652655 C46.7068854,30.4031033 46.7979025,30.0503376 46.7126676,29.7180719 L45.8126676,25.7980719 Z" id="Shape" fill="#392F5A"></path>
        </g>
    </g>
</svg>